<!DOCTYPE svg PUBLIC "-//W3C//DTD SVG 1.1//EN" "http://www.w3.org/Graphics/SVG/1.1/DTD/svg11.dtd">
<!-- Uploaded to: SVG Repo, www.svgrepo.com, Transformed by: SVG Repo Mixer Tools -->
<svg fill="#000000" width="128px" height="128px" viewBox="0 -0.25 31.66 31.66" xmlns="http://www.w3.org/2000/svg">
<g id="SVGRepo_bgCarrier" stroke-width="0"/>
<g id="SVGRepo_tracerCarrier" stroke-linecap="round" stroke-linejoin="round"/>
<g id="SVGRepo_iconCarrier"> <g transform="translate(-288.905 -450.693)"> <path d="M295.495,460.628v19.234H290.9V460.628h4.59m1.1-2h-6.78a.9.9,0,0,0-.9.9v21.424a.9.9,0,0,0,.9.9h6.78a.9.9,0,0,0,.9-.9V459.533a.9.9,0,0,0-.9-.9Z"/> <path d="M307,452.693v27.169h-4.344V452.693H307m1.1-2H301.56a.9.9,0,0,0-.9.9v29.359a.9.9,0,0,0,.9.9h6.534a.9.9,0,0,0,.9-.9V451.6a.9.9,0,0,0-.9-.9Z"/> <path d="M318.565,464.351v15.511h-4.222V464.351h4.222m1.1-2h-6.412a.9.9,0,0,0-.9.9v17.7a.9.9,0,0,0,.9.9h6.412a.905.905,0,0,0,.9-.9v-17.7a.905.905,0,0,0-.9-.9Z"/> <rect height="2" transform="translate(288.905 463.253)" width="8.59"/> <rect height="2" transform="translate(300.655 456.442)" width="8.344"/> <rect height="2" transform="translate(300.655 460.184)" width="8.344"/> <rect height="2" transform="translate(312.342 465.847)" width="8.223"/> <rect height="2" transform="translate(312.342 469.245)" width="8.223"/> </g> </g>
</svg>